<svg width="32" height="29" viewBox="0 0 32 29" fill="none" xmlns="http://www.w3.org/2000/svg">
<path d="M25.0142 21.0844C22.9155 21.0844 21.2081 22.7918 21.2081 24.8904C21.2081 26.9891 22.9156 28.6965 25.0142 28.6965C27.1129 28.6965 28.8203 26.9891 28.8203 24.8904C28.8203 22.7918 27.1129 21.0844 25.0142 21.0844ZM25.0142 26.4129C24.1746 26.4129 23.4918 25.73 23.4918 24.8904C23.4918 24.0508 24.1746 23.368 25.0142 23.368C25.8538 23.368 26.5366 24.0508 26.5366 24.8904C26.5366 25.73 25.8538 26.4129 25.0142 26.4129Z" fill="#4F4F4F"/>
<path d="M31.1278 6.3742C30.9116 6.09751 30.5801 5.93612 30.2288 5.93612H7.89386L6.8662 1.63641C6.74327 1.12261 6.28385 0.759888 5.75556 0.759888H1.98753C1.35688 0.759828 0.845703 1.271 0.845703 1.90165C0.845703 2.5323 1.35688 3.04347 1.98753 3.04347H4.8543L8.56522 18.5708C8.68816 19.085 9.14758 19.4473 9.67587 19.4473H27.4504C27.9752 19.4473 28.4327 19.0896 28.5587 18.5803L31.3372 7.35231C31.4212 7.01135 31.344 6.65089 31.1278 6.3742ZM26.557 17.1637H10.5771L8.43961 8.21977H28.7698L26.557 17.1637Z" fill="#4F4F4F"/>
<path d="M11.1989 21.0844C9.10022 21.0844 7.39285 22.7918 7.39285 24.8904C7.39285 26.9891 9.10028 28.6965 11.1989 28.6965C13.2976 28.6965 15.005 26.9891 15.005 24.8904C15.005 22.7918 13.2976 21.0844 11.1989 21.0844ZM11.1989 26.4129C10.3593 26.4129 9.6765 25.73 9.6765 24.8904C9.6765 24.0508 10.3593 23.368 11.1989 23.368C12.0385 23.368 12.7214 24.0508 12.7214 24.8904C12.7214 25.73 12.0385 26.4129 11.1989 26.4129Z" fill="#4F4F4F"/>
</svg>
