<svg width="12" height="13" viewBox="0 0 12 13" fill="none" xmlns="http://www.w3.org/2000/svg">
<path d="M11.731 10.1231L9.87777 8.14182C9.50864 7.74882 8.89736 7.76076 8.51538 8.16924L7.58172 9.16707C7.52274 9.13231 7.46168 9.09601 7.39749 9.0575C6.80789 8.70829 6.00093 8.22964 5.15177 7.32126C4.3001 6.41096 3.85192 5.54702 3.52424 4.91636C3.48966 4.84954 3.45653 4.78513 3.42381 4.72395L4.05043 4.05511L4.3585 3.72539C4.74107 3.31632 4.75162 2.66307 4.38336 2.26893L2.53014 0.287467C2.16188 -0.106121 1.55033 -0.0941806 1.16776 0.314885L0.645456 0.876411L0.659729 0.891557C0.484595 1.13044 0.338248 1.40595 0.229341 1.70305C0.128949 1.98586 0.0664456 2.25574 0.0378657 2.52616C-0.206839 4.69473 0.720198 6.67663 3.23606 9.36603C6.71374 13.0833 9.5163 12.8025 9.6372 12.7888C9.90052 12.7551 10.1529 12.6879 10.4093 12.5814C10.6849 12.4663 10.9424 12.3101 11.1658 12.1233L11.1772 12.1342L11.7063 11.5803C12.0881 11.1713 12.0991 10.5178 11.731 10.1231Z" fill="black"/>
</svg>
